<!DOCTYPE svg PUBLIC "-//W3C//DTD SVG 1.1//EN" "https://www.w3.org/Graphics/SVG/1.1/DTD/svg11.dtd">
<svg xmlns="http://www.w3.org/2000/svg" class="sc-ehMyHa gtEPHg graph" data-testid="graph" width="1944" height="717"><g transform="translate(12,12)" class="new-look-graph"><g class="nodes"><g class="node-container" transform="translate(960,22)"><g><circle class="sc-GVOUr ktyhhn shape" r="22"/><text class="sc-fbPSWO ijurXc label"><tspan xml:space="preserve" text-anchor="middle" alignment-baseline="central">Start</tspan></text></g></g><g class="node-container" transform="translate(960,103.5)"><g class="sc-ehmTmK fzRkr node state Choice" data-testid="graph-Scan a single subdomain" data-state-id="Scan a single subdomain" data-state-type="Choice"><g class="new-look-state-node "><rect x="-120" y="-24.5" width="240" height="49" rx="3" ry="3"/><g class="handle" transform="translate(-120,-24.5)"><path d="M5,16 L5,34 M8,16 L8,34"/></g><g class="icon" transform="translate(-104,-24)"><rect fill="var(--color-background-container-header-g9rg0j, #fafafa)" x="0.0361026108" y="0.0181291967" width="48" height="48"/><line x1="47.5" y1="0.49122807" x2="47.5" y2="47.5" stroke="var(--color-text-home-header-secondary-g5rqe4, #d5dbdb)" stroke-linecap="square"/><line x1="0.5" y1="0.49122807" x2="0.5" y2="47.5" stroke="var(--color-text-home-header-secondary-g5rqe4, #d5dbdb)" stroke-linecap="square"/><use href="#icon-flow-choice"/></g><g class="text-lines" transform="translate(-48,-24.5)"><text transform="translate(0,17)" class="line1"><tspan xml:space="preserve" text-anchor="start">Choice state</tspan></text><text transform="translate(0,35.5)" class="line2 label"><tspan xml:space="preserve" text-anchor="start">Scan a single subdomain</tspan></text></g></g></g></g><g class="node-container" transform="translate(400,405)"><g class="sc-ehmTmK fzRkr node state Task" data-testid="graph-single-subdomain" data-state-id="single-subdomain" data-state-type="Task"><g class="new-look-state-node "><rect x="-120" y="-24.5" width="240" height="49" rx="3" ry="3"/><g class="handle" transform="translate(-120,-24.5)"><path d="M5,16 L5,34 M8,16 L8,34"/></g><g class="icon" transform="translate(-104,-24)"><rect fill="var(--color-background-container-header-g9rg0j, #fafafa)" x="0.0361026108" y="0.0181291967" width="48" height="48"/><line x1="47.5" y1="0.49122807" x2="47.5" y2="47.5" stroke="var(--color-text-home-header-secondary-g5rqe4, #d5dbdb)" stroke-linecap="square"/><line x1="0.5" y1="0.49122807" x2="0.5" y2="47.5" stroke="var(--color-text-home-header-secondary-g5rqe4, #d5dbdb)" stroke-linecap="square"/><use href="#icon-service-lam"/></g><g class="text-lines" transform="translate(-48,-24.5)"><text transform="translate(0,17)" class="line1"><tspan xml:space="preserve" text-anchor="start">Lambda: Invoke</tspan></text><text transform="translate(0,35.5)" class="line2 label"><tspan xml:space="preserve" text-anchor="start">single-subdomain</tspan></text></g></g></g></g><g class="node-container" transform="translate(1240,204)"><g class="sc-ehmTmK fzRkr node state Task" data-testid="graph-subfinder" data-state-id="subfinder" data-state-type="Task"><g class="new-look-state-node "><rect x="-120" y="-24.5" width="240" height="49" rx="3" ry="3"/><g class="handle" transform="translate(-120,-24.5)"><path d="M5,16 L5,34 M8,16 L8,34"/></g><g class="icon" transform="translate(-104,-24)"><rect fill="var(--color-background-container-header-g9rg0j, #fafafa)" x="0.0361026108" y="0.0181291967" width="48" height="48"/><line x1="47.5" y1="0.49122807" x2="47.5" y2="47.5" stroke="var(--color-text-home-header-secondary-g5rqe4, #d5dbdb)" stroke-linecap="square"/><line x1="0.5" y1="0.49122807" x2="0.5" y2="47.5" stroke="var(--color-text-home-header-secondary-g5rqe4, #d5dbdb)" stroke-linecap="square"/><use href="#icon-service-lam"/></g><g class="text-lines" transform="translate(-48,-24.5)"><text transform="translate(0,17)" class="line1"><tspan xml:space="preserve" text-anchor="start">Lambda: Invoke</tspan></text><text transform="translate(0,35.5)" class="line2 label"><tspan xml:space="preserve" text-anchor="start">subfinder</tspan></text></g></g></g></g><g class="node-container" transform="translate(400,489)"><g class="sc-ehmTmK fzRkr node state Choice" data-testid="graph-scantype for single subdomain" data-state-id="scantype for single subdomain" data-state-type="Choice"><g class="new-look-state-node "><rect x="-138" y="-24.5" width="276" height="49" rx="3" ry="3"/><g class="handle" transform="translate(-138,-24.5)"><path d="M5,16 L5,34 M8,16 L8,34"/></g><g class="icon" transform="translate(-122,-24)"><rect fill="var(--color-background-container-header-g9rg0j, #fafafa)" x="0.0361026108" y="0.0181291967" width="48" height="48"/><line x1="47.5" y1="0.49122807" x2="47.5" y2="47.5" stroke="var(--color-text-home-header-secondary-g5rqe4, #d5dbdb)" stroke-linecap="square"/><line x1="0.5" y1="0.49122807" x2="0.5" y2="47.5" stroke="var(--color-text-home-header-secondary-g5rqe4, #d5dbdb)" stroke-linecap="square"/><use href="#icon-flow-choice"/></g><g class="text-lines" transform="translate(-66,-24.5)"><text transform="translate(0,17)" class="line1"><tspan xml:space="preserve" text-anchor="start">Choice state</tspan></text><text transform="translate(0,35.5)" class="line2 label"><tspan xml:space="preserve" text-anchor="start">scantype for single subdomain</tspan></text></g></g></g></g><g class="node-container" transform="translate(120,589.5)"><g class="sc-ehmTmK fzRkr node state Task" data-testid="graph-nuclei-single-lite" data-state-id="nuclei-single-lite" data-state-type="Task"><g class="new-look-state-node "><rect x="-120" y="-24.5" width="240" height="49" rx="3" ry="3"/><g class="handle" transform="translate(-120,-24.5)"><path d="M5,16 L5,34 M8,16 L8,34"/></g><g class="icon" transform="translate(-104,-24)"><rect fill="var(--color-background-container-header-g9rg0j, #fafafa)" x="0.0361026108" y="0.0181291967" width="48" height="48"/><line x1="47.5" y1="0.49122807" x2="47.5" y2="47.5" stroke="var(--color-text-home-header-secondary-g5rqe4, #d5dbdb)" stroke-linecap="square"/><line x1="0.5" y1="0.49122807" x2="0.5" y2="47.5" stroke="var(--color-text-home-header-secondary-g5rqe4, #d5dbdb)" stroke-linecap="square"/><use href="#icon-service-lam"/></g><g class="text-lines" transform="translate(-48,-24.5)"><text transform="translate(0,17)" class="line1"><tspan xml:space="preserve" text-anchor="start">Lambda: Invoke</tspan></text><text transform="translate(0,35.5)" class="line2 label"><tspan xml:space="preserve" text-anchor="start">nuclei-single-lite</tspan></text></g></g></g></g><g class="node-container" transform="translate(400,589.5)"><g class="sc-ehmTmK fzRkr node state Task" data-testid="graph-nuclei-single-intensive" data-state-id="nuclei-single-intensive" data-state-type="Task"><g class="new-look-state-node "><rect x="-120" y="-24.5" width="240" height="49" rx="3" ry="3"/><g class="handle" transform="translate(-120,-24.5)"><path d="M5,16 L5,34 M8,16 L8,34"/></g><g class="icon" transform="translate(-104,-24)"><rect fill="var(--color-background-container-header-g9rg0j, #fafafa)" x="0.0361026108" y="0.0181291967" width="48" height="48"/><line x1="47.5" y1="0.49122807" x2="47.5" y2="47.5" stroke="var(--color-text-home-header-secondary-g5rqe4, #d5dbdb)" stroke-linecap="square"/><line x1="0.5" y1="0.49122807" x2="0.5" y2="47.5" stroke="var(--color-text-home-header-secondary-g5rqe4, #d5dbdb)" stroke-linecap="square"/><use href="#icon-service-lam"/></g><g class="text-lines" transform="translate(-48,-24.5)"><text transform="translate(0,17)" class="line1"><tspan xml:space="preserve" text-anchor="start">Lambda: Invoke</tspan></text><text transform="translate(0,35.5)" class="line2 label"><tspan xml:space="preserve" text-anchor="start">nuclei-single-intensive</tspan></text></g></g></g></g><g class="node-container" transform="translate(680,589.5)"><g class="sc-ehmTmK fzRkr node state Task" data-testid="graph-nuclei-single" data-state-id="nuclei-single" data-state-type="Task"><g class="new-look-state-node "><rect x="-120" y="-24.5" width="240" height="49" rx="3" ry="3"/><g class="handle" transform="translate(-120,-24.5)"><path d="M5,16 L5,34 M8,16 L8,34"/></g><g class="icon" transform="translate(-104,-24)"><rect fill="var(--color-background-container-header-g9rg0j, #fafafa)" x="0.0361026108" y="0.0181291967" width="48" height="48"/><line x1="47.5" y1="0.49122807" x2="47.5" y2="47.5" stroke="var(--color-text-home-header-secondary-g5rqe4, #d5dbdb)" stroke-linecap="square"/><line x1="0.5" y1="0.49122807" x2="0.5" y2="47.5" stroke="var(--color-text-home-header-secondary-g5rqe4, #d5dbdb)" stroke-linecap="square"/><use href="#icon-service-lam"/></g><g class="text-lines" transform="translate(-48,-24.5)"><text transform="translate(0,17)" class="line1"><tspan xml:space="preserve" text-anchor="start">Lambda: Invoke</tspan></text><text transform="translate(0,35.5)" class="line2 label"><tspan xml:space="preserve" text-anchor="start">nuclei-single</tspan></text></g></g></g></g><g class="node-container" transform="translate(960,671)"><g><circle class="sc-GVOUr ktyhhn shape" r="22"/><text class="sc-fbPSWO ijurXc label"><tspan xml:space="preserve" text-anchor="middle" alignment-baseline="central">End</tspan></text></g></g><g class="node-container" transform="translate(1240,304.5)"><g class="sc-ehmTmK fzRkr node state Choice" data-testid="graph-Choice" data-state-id="Choice" data-state-type="Choice"><g class="new-look-state-node "><rect x="-120" y="-24.5" width="240" height="49" rx="3" ry="3"/><g class="handle" transform="translate(-120,-24.5)"><path d="M5,16 L5,34 M8,16 L8,34"/></g><g class="icon" transform="translate(-104,-24)"><rect fill="var(--color-background-container-header-g9rg0j, #fafafa)" x="0.0361026108" y="0.0181291967" width="48" height="48"/><line x1="47.5" y1="0.49122807" x2="47.5" y2="47.5" stroke="var(--color-text-home-header-secondary-g5rqe4, #d5dbdb)" stroke-linecap="square"/><line x1="0.5" y1="0.49122807" x2="0.5" y2="47.5" stroke="var(--color-text-home-header-secondary-g5rqe4, #d5dbdb)" stroke-linecap="square"/><use href="#icon-flow-choice"/></g><g class="text-lines" transform="translate(-48,-24.5)"><text transform="translate(0,17)" class="line1"><tspan xml:space="preserve" text-anchor="start">Choice state</tspan></text><text transform="translate(0,35.5)" class="line2 label"><tspan xml:space="preserve" text-anchor="start">Choice</tspan></text></g></g></g></g><g class="node-container" transform="translate(960,489)"><g class="sc-ehmTmK fzRkr node state Task" data-testid="graph-Lambda Invoke" data-state-id="Lambda Invoke" data-state-type="Task"><g class="new-look-state-node "><rect x="-120" y="-24.5" width="240" height="49" rx="3" ry="3"/><g class="handle" transform="translate(-120,-24.5)"><path d="M5,16 L5,34 M8,16 L8,34"/></g><g class="icon" transform="translate(-104,-24)"><rect fill="var(--color-background-container-header-g9rg0j, #fafafa)" x="0.0361026108" y="0.0181291967" width="48" height="48"/><line x1="47.5" y1="0.49122807" x2="47.5" y2="47.5" stroke="var(--color-text-home-header-secondary-g5rqe4, #d5dbdb)" stroke-linecap="square"/><line x1="0.5" y1="0.49122807" x2="0.5" y2="47.5" stroke="var(--color-text-home-header-secondary-g5rqe4, #d5dbdb)" stroke-linecap="square"/><use href="#icon-service-lam"/></g><g class="text-lines" transform="translate(-48,-24.5)"><text transform="translate(0,17)" class="line1"><tspan xml:space="preserve" text-anchor="start">Lambda: Invoke</tspan></text><text transform="translate(0,35.5)" class="line2 label"><tspan xml:space="preserve" text-anchor="start">Lambda Invoke</tspan></text></g></g></g></g><g class="node-container" transform="translate(1520,405)"><g class="sc-ehmTmK fzRkr node state Task" data-testid="graph-httpx" data-state-id="httpx" data-state-type="Task"><g class="new-look-state-node "><rect x="-120" y="-24.5" width="240" height="49" rx="3" ry="3"/><g class="handle" transform="translate(-120,-24.5)"><path d="M5,16 L5,34 M8,16 L8,34"/></g><g class="icon" transform="translate(-104,-24)"><rect fill="var(--color-background-container-header-g9rg0j, #fafafa)" x="0.0361026108" y="0.0181291967" width="48" height="48"/><line x1="47.5" y1="0.49122807" x2="47.5" y2="47.5" stroke="var(--color-text-home-header-secondary-g5rqe4, #d5dbdb)" stroke-linecap="square"/><line x1="0.5" y1="0.49122807" x2="0.5" y2="47.5" stroke="var(--color-text-home-header-secondary-g5rqe4, #d5dbdb)" stroke-linecap="square"/><use href="#icon-service-lam"/></g><g class="text-lines" transform="translate(-48,-24.5)"><text transform="translate(0,17)" class="line1"><tspan xml:space="preserve" text-anchor="start">Lambda: Invoke</tspan></text><text transform="translate(0,35.5)" class="line2 label"><tspan xml:space="preserve" text-anchor="start">httpx</tspan></text></g></g></g></g><g class="node-container" transform="translate(960,589.5)"><g class="sc-ehmTmK fzRkr node state Task" data-testid="graph-nuclei-network" data-state-id="nuclei-network" data-state-type="Task"><g class="new-look-state-node "><rect x="-120" y="-24.5" width="240" height="49" rx="3" ry="3"/><g class="handle" transform="translate(-120,-24.5)"><path d="M5,16 L5,34 M8,16 L8,34"/></g><g class="icon" transform="translate(-104,-24)"><rect fill="var(--color-background-container-header-g9rg0j, #fafafa)" x="0.0361026108" y="0.0181291967" width="48" height="48"/><line x1="47.5" y1="0.49122807" x2="47.5" y2="47.5" stroke="var(--color-text-home-header-secondary-g5rqe4, #d5dbdb)" stroke-linecap="square"/><line x1="0.5" y1="0.49122807" x2="0.5" y2="47.5" stroke="var(--color-text-home-header-secondary-g5rqe4, #d5dbdb)" stroke-linecap="square"/><use href="#icon-service-lam"/></g><g class="text-lines" transform="translate(-48,-24.5)"><text transform="translate(0,17)" class="line1"><tspan xml:space="preserve" text-anchor="start">Lambda: Invoke</tspan></text><text transform="translate(0,35.5)" class="line2 label"><tspan xml:space="preserve" text-anchor="start">nuclei-network</tspan></text></g></g></g></g><g class="node-container" transform="translate(1520,489)"><g class="sc-ehmTmK fzRkr node state Choice" data-testid="graph-scantype for multiple subdomains" data-state-id="scantype for multiple subdomains" data-state-type="Choice"><g class="new-look-state-node "><rect x="-149" y="-24.5" width="298" height="49" rx="3" ry="3"/><g class="handle" transform="translate(-149,-24.5)"><path d="M5,16 L5,34 M8,16 L8,34"/></g><g class="icon" transform="translate(-133,-24)"><rect fill="var(--color-background-container-header-g9rg0j, #fafafa)" x="0.0361026108" y="0.0181291967" width="48" height="48"/><line x1="47.5" y1="0.49122807" x2="47.5" y2="47.5" stroke="var(--color-text-home-header-secondary-g5rqe4, #d5dbdb)" stroke-linecap="square"/><line x1="0.5" y1="0.49122807" x2="0.5" y2="47.5" stroke="var(--color-text-home-header-secondary-g5rqe4, #d5dbdb)" stroke-linecap="square"/><use href="#icon-flow-choice"/></g><g class="text-lines" transform="translate(-77,-24.5)"><text transform="translate(0,17)" class="line1"><tspan xml:space="preserve" text-anchor="start">Choice state</tspan></text><text transform="translate(0,35.5)" class="line2 label"><tspan xml:space="preserve" text-anchor="start">scantype for multiple subdomains</tspan></text></g></g></g></g><g class="node-container" transform="translate(1240,589.5)"><g class="sc-ehmTmK fzRkr node state Task" data-testid="graph-nuclei-lite" data-state-id="nuclei-lite" data-state-type="Task"><g class="new-look-state-node "><rect x="-120" y="-24.5" width="240" height="49" rx="3" ry="3"/><g class="handle" transform="translate(-120,-24.5)"><path d="M5,16 L5,34 M8,16 L8,34"/></g><g class="icon" transform="translate(-104,-24)"><rect fill="var(--color-background-container-header-g9rg0j, #fafafa)" x="0.0361026108" y="0.0181291967" width="48" height="48"/><line x1="47.5" y1="0.49122807" x2="47.5" y2="47.5" stroke="var(--color-text-home-header-secondary-g5rqe4, #d5dbdb)" stroke-linecap="square"/><line x1="0.5" y1="0.49122807" x2="0.5" y2="47.5" stroke="var(--color-text-home-header-secondary-g5rqe4, #d5dbdb)" stroke-linecap="square"/><use href="#icon-service-lam"/></g><g class="text-lines" transform="translate(-48,-24.5)"><text transform="translate(0,17)" class="line1"><tspan xml:space="preserve" text-anchor="start">Lambda: Invoke</tspan></text><text transform="translate(0,35.5)" class="line2 label"><tspan xml:space="preserve" text-anchor="start">nuclei-lite</tspan></text></g></g></g></g><g class="node-container" transform="translate(1520,589.5)"><g class="sc-ehmTmK fzRkr node state Task" data-testid="graph-nuclei-intensive" data-state-id="nuclei-intensive" data-state-type="Task"><g class="new-look-state-node "><rect x="-120" y="-24.5" width="240" height="49" rx="3" ry="3"/><g class="handle" transform="translate(-120,-24.5)"><path d="M5,16 L5,34 M8,16 L8,34"/></g><g class="icon" transform="translate(-104,-24)"><rect fill="var(--color-background-container-header-g9rg0j, #fafafa)" x="0.0361026108" y="0.0181291967" width="48" height="48"/><line x1="47.5" y1="0.49122807" x2="47.5" y2="47.5" stroke="var(--color-text-home-header-secondary-g5rqe4, #d5dbdb)" stroke-linecap="square"/><line x1="0.5" y1="0.49122807" x2="0.5" y2="47.5" stroke="var(--color-text-home-header-secondary-g5rqe4, #d5dbdb)" stroke-linecap="square"/><use href="#icon-service-lam"/></g><g class="text-lines" transform="translate(-48,-24.5)"><text transform="translate(0,17)" class="line1"><tspan xml:space="preserve" text-anchor="start">Lambda: Invoke</tspan></text><text transform="translate(0,35.5)" class="line2 label"><tspan xml:space="preserve" text-anchor="start">nuclei-intensive</tspan></text></g></g></g></g><g class="node-container" transform="translate(1800,589.5)"><g class="sc-ehmTmK fzRkr node state Task" data-testid="graph-nuclei" data-state-id="nuclei" data-state-type="Task"><g class="new-look-state-node "><rect x="-120" y="-24.5" width="240" height="49" rx="3" ry="3"/><g class="handle" transform="translate(-120,-24.5)"><path d="M5,16 L5,34 M8,16 L8,34"/></g><g class="icon" transform="translate(-104,-24)"><rect fill="var(--color-background-container-header-g9rg0j, #fafafa)" x="0.0361026108" y="0.0181291967" width="48" height="48"/><line x1="47.5" y1="0.49122807" x2="47.5" y2="47.5" stroke="var(--color-text-home-header-secondary-g5rqe4, #d5dbdb)" stroke-linecap="square"/><line x1="0.5" y1="0.49122807" x2="0.5" y2="47.5" stroke="var(--color-text-home-header-secondary-g5rqe4, #d5dbdb)" stroke-linecap="square"/><use href="#icon-service-lam"/></g><g class="text-lines" transform="translate(-48,-24.5)"><text transform="translate(0,17)" class="line1"><tspan xml:space="preserve" text-anchor="start">Lambda: Invoke</tspan></text><text transform="translate(0,35.5)" class="line2 label"><tspan xml:space="preserve" text-anchor="start">nuclei</tspan></text></g></g></g></g></g><g class="edges"><g class="sc-lbOyJj wYkTA edge"><path id="state-Scan a single subdomain:state-single-subdomain:choiceRule:0" d="M840,114.26785714285714L766.6666666666666,120.84821428571428C693.3333333333334,127.42857142857143,546.6666666666666,140.5892857142857,473.3333333333333,155.54464285714286C400,170.5,400,187.25,400,204C400,220.75,400,237.5,400,254.25C400,271,400,287.75,400,304.5C400,321.25,400,338,400,350.6666666666667C400,363.3333333333333,400,371.9166666666667,400,376.2083333333333L400,380.5" marker-end="url(#arrowhead)" fill="none"/><g data-testid="graph-Scan a single subdomain-0" class="edge-label" transform="translate(473.3333333333333,155.54464285714286)"><rect x="-102" y="-8.25" width="204" height="16.5" class="sc-dwLEzm eiPrps"/><text class="sc-TRNrF iuUhOo label"><tspan xml:space="preserve" text-anchor="middle" alignment-baseline="central">$.subdomain &gt; "1" and ($.domain &lt; "1" o…</tspan><title>$.subdomain &gt; "1" and ($.domain &lt; "1" or not($.domain is present))</title></text></g></g><g class="sc-lbOyJj wYkTA edge"><path id="state-Scan a single subdomain:state-subfinder:choiceDefault" d="M1080,125.03571428571428L1106.6666666666667,129.82142857142856C1133.3333333333333,134.60714285714286,1186.6666666666667,144.17857142857142,1213.3333333333333,153.25595238095238C1240,162.33333333333334,1240,170.91666666666666,1240,175.20833333333334L1240,179.5" marker-end="url(#arrowhead)" fill="none"/><g data-testid="graph-Scan a single subdomain-Default" class="edge-label" transform="translate(1213.3333333333333,153.25595238095238)"><rect x="-22" y="-8.25" width="44" height="16.5" class="sc-dwLEzm eiPrps"/><text class="sc-TRNrF iuUhOo label"><tspan xml:space="preserve" text-anchor="middle" alignment-baseline="central">Default</tspan><title>Default</title></text></g></g><g class="sc-lbOyJj wYkTA edge"><path id="start:state-Scan a single subdomain" d="M960,44L960,46.916666666666664C960,49.833333333333336,960,55.666666666666664,960,61.5C960,67.33333333333333,960,73.16666666666667,960,76.08333333333333L960,79" marker-end="url(#arrowhead)" fill="none"/></g><g class="sc-lbOyJj wYkTA edge"><path id="state-single-subdomain:state-scantype for single subdomain:normal" d="M400,429.5L400,432.4166666666667C400,435.3333333333333,400,441.1666666666667,400,447C400,452.8333333333333,400,458.6666666666667,400,461.5833333333333L400,464.5" marker-end="url(#arrowhead)" fill="none"/></g><g class="sc-lbOyJj wYkTA edge"><path id="state-scantype for single subdomain:state-nuclei-single-lite:choiceRule:0" d="M263.48258706467664,513.5L239.5688225538972,517.7916666666666C215.65505804311775,522.0833333333334,167.8275290215589,530.6666666666666,143.91376451077943,539.25C120,547.8333333333334,120,556.4166666666666,120,560.7083333333334L120,565" marker-end="url(#arrowhead)" fill="none"/><g data-testid="graph-scantype for single subdomain-0" class="edge-label" transform="translate(143.91376451077943,539.25)"><rect x="-49" y="-8.25" width="98" height="16.5" class="sc-dwLEzm eiPrps"/><text class="sc-TRNrF iuUhOo label"><tspan xml:space="preserve" text-anchor="middle" alignment-baseline="central">$.scantype == "lite"</tspan><title>$.scantype == "lite"</title></text></g></g><g class="sc-lbOyJj wYkTA edge"><path id="state-scantype for single subdomain:state-nuclei-single-intensive:choiceRule:1" d="M400,513.5L400,517.7916666666666C400,522.0833333333334,400,530.6666666666666,400,539.25C400,547.8333333333334,400,556.4166666666666,400,560.7083333333334L400,565" marker-end="url(#arrowhead)" fill="none"/><g data-testid="graph-scantype for single subdomain-1" class="edge-label" transform="translate(400,539.25)"><rect x="-62" y="-8.25" width="124" height="16.5" class="sc-dwLEzm eiPrps"/><text class="sc-TRNrF iuUhOo label"><tspan xml:space="preserve" text-anchor="middle" alignment-baseline="central">$.scantype == "intensive"</tspan><title>$.scantype == "intensive"</title></text></g></g><g class="sc-lbOyJj wYkTA edge"><path id="state-scantype for single subdomain:state-nuclei-single:choiceDefault" d="M536.5174129353234,513.5L560.4311774461029,517.7916666666666C584.3449419568823,522.0833333333334,632.1724709784411,530.6666666666666,656.0862354892206,539.25C680,547.8333333333334,680,556.4166666666666,680,560.7083333333334L680,565" marker-end="url(#arrowhead)" fill="none"/><g data-testid="graph-scantype for single subdomain-Default" class="edge-label" transform="translate(656.0862354892206,539.25)"><rect x="-22" y="-8.25" width="44" height="16.5" class="sc-dwLEzm eiPrps"/><text class="sc-TRNrF iuUhOo label"><tspan xml:space="preserve" text-anchor="middle" alignment-baseline="central">Default</tspan><title>Default</title></text></g></g><g class="sc-lbOyJj wYkTA edge"><path id="state-nuclei-single-lite:end:normal" d="M120,614L120,616.9166666666666C120,619.8333333333334,120,625.6666666666666,256.33738056007786,634.9944363477656C392.67476112015567,644.3222060288645,665.3495222403113,657.1444120577289,801.6869028003892,663.5555150721611L938.024283360467,669.9666180865934" marker-end="url(#arrowhead)" fill="none"/></g><g class="sc-lbOyJj wYkTA edge"><path id="state-nuclei-single:end:normal" d="M680,614L680,616.9166666666666C680,619.8333333333334,680,625.6666666666666,723.0359497382648,634.6544762428385C766.0718994765298,643.6422858190105,852.1437989530596,655.7845716380209,895.1797486913243,661.8557145475262L938.2156984295893,667.9268574570314" marker-end="url(#arrowhead)" fill="none"/></g><g class="sc-lbOyJj wYkTA edge"><path id="state-subfinder:state-Choice:normal" d="M1240,228.5L1240,232.79166666666666C1240,237.08333333333334,1240,245.66666666666666,1240,254.25C1240,262.8333333333333,1240,271.4166666666667,1240,275.7083333333333L1240,280" marker-end="url(#arrowhead)" fill="none"/></g><g class="sc-lbOyJj wYkTA edge"><path id="state-Choice:state-Lambda Invoke:choiceRule:0" d="M1120,326.0357142857143L1093.3333333333333,330.82142857142856C1066.6666666666667,335.60714285714283,1013.3333333333334,345.1785714285714,986.6666666666666,358.3392857142857C960,371.5,960,388.25,960,403.625C960,419,960,433,960,442.9166666666667C960,452.8333333333333,960,458.6666666666667,960,461.5833333333333L960,464.5" marker-end="url(#arrowhead)" fill="none"/><g data-testid="graph-Choice-0" class="edge-label" transform="translate(986.6666666666666,358.3392857142857)"><rect x="-57.5" y="-8.25" width="115" height="16.5" class="sc-dwLEzm eiPrps"/><text class="sc-TRNrF iuUhOo label"><tspan xml:space="preserve" text-anchor="middle" alignment-baseline="central">$.networkscan == "yes"</tspan><title>$.networkscan == "yes"</title></text></g></g><g class="sc-lbOyJj wYkTA edge"><path id="state-Choice:state-httpx:choiceDefault" d="M1360,326.0357142857143L1386.6666666666667,330.82142857142856C1413.3333333333333,335.60714285714283,1466.6666666666667,345.1785714285714,1493.3333333333333,354.25595238095235C1520,363.3333333333333,1520,371.9166666666667,1520,376.2083333333333L1520,380.5" marker-end="url(#arrowhead)" fill="none"/><g data-testid="graph-Choice-Default" class="edge-label" transform="translate(1493.3333333333333,354.25595238095235)"><rect x="-22" y="-8.25" width="44" height="16.5" class="sc-dwLEzm eiPrps"/><text class="sc-TRNrF iuUhOo label"><tspan xml:space="preserve" text-anchor="middle" alignment-baseline="central">Default</tspan><title>Default</title></text></g></g><g class="sc-lbOyJj wYkTA edge"><path id="state-Lambda Invoke:state-nuclei-network:normal" d="M960,513.5L960,517.7916666666666C960,522.0833333333334,960,530.6666666666666,960,539.25C960,547.8333333333334,960,556.4166666666666,960,560.7083333333334L960,565" marker-end="url(#arrowhead)" fill="none"/></g><g class="sc-lbOyJj wYkTA edge"><path id="state-nuclei-network:end:normal" d="M960,614L960,616.9166666666666C960,619.8333333333334,960,625.6666666666666,960,631.5C960,637.3333333333334,960,643.1666666666666,960,646.0833333333334L960,649" marker-end="url(#arrowhead)" fill="none"/></g><g class="sc-lbOyJj wYkTA edge"><path id="state-httpx:state-scantype for multiple subdomains:normal" d="M1520,429.5L1520,432.4166666666667C1520,435.3333333333333,1520,441.1666666666667,1520,447C1520,452.8333333333333,1520,458.6666666666667,1520,461.5833333333333L1520,464.5" marker-end="url(#arrowhead)" fill="none"/></g><g class="sc-lbOyJj wYkTA edge"><path id="state-scantype for multiple subdomains:state-nuclei-lite:choiceRule:0" d="M1383.4825870646766,513.5L1359.5688225538972,517.7916666666666C1335.6550580431178,522.0833333333334,1287.8275290215588,530.6666666666666,1263.9137645107794,539.25C1240,547.8333333333334,1240,556.4166666666666,1240,560.7083333333334L1240,565" marker-end="url(#arrowhead)" fill="none"/><g data-testid="graph-scantype for multiple subdomains-0" class="edge-label" transform="translate(1263.9137645107794,539.25)"><rect x="-49" y="-8.25" width="98" height="16.5" class="sc-dwLEzm eiPrps"/><text class="sc-TRNrF iuUhOo label"><tspan xml:space="preserve" text-anchor="middle" alignment-baseline="central">$.scantype == "lite"</tspan><title>$.scantype == "lite"</title></text></g></g><g class="sc-lbOyJj wYkTA edge"><path id="state-scantype for multiple subdomains:state-nuclei-intensive:choiceRule:1" d="M1520,513.5L1520,517.7916666666666C1520,522.0833333333334,1520,530.6666666666666,1520,539.25C1520,547.8333333333334,1520,556.4166666666666,1520,560.7083333333334L1520,565" marker-end="url(#arrowhead)" fill="none"/><g data-testid="graph-scantype for multiple subdomains-1" class="edge-label" transform="translate(1520,539.25)"><rect x="-62" y="-8.25" width="124" height="16.5" class="sc-dwLEzm eiPrps"/><text class="sc-TRNrF iuUhOo label"><tspan xml:space="preserve" text-anchor="middle" alignment-baseline="central">$.scantype == "intensive"</tspan><title>$.scantype == "intensive"</title></text></g></g><g class="sc-lbOyJj wYkTA edge"><path id="state-scantype for multiple subdomains:state-nuclei:choiceDefault" d="M1656.5174129353234,513.5L1680.4311774461028,517.7916666666666C1704.3449419568824,522.0833333333334,1752.1724709784412,530.6666666666666,1776.0862354892206,539.25C1800,547.8333333333334,1800,556.4166666666666,1800,560.7083333333334L1800,565" marker-end="url(#arrowhead)" fill="none"/><g data-testid="graph-scantype for multiple subdomains-Default" class="edge-label" transform="translate(1776.0862354892206,539.25)"><rect x="-22" y="-8.25" width="44" height="16.5" class="sc-dwLEzm eiPrps"/><text class="sc-TRNrF iuUhOo label"><tspan xml:space="preserve" text-anchor="middle" alignment-baseline="central">Default</tspan><title>Default</title></text></g></g><g class="sc-lbOyJj wYkTA edge"><path id="state-nuclei-lite:end:normal" d="M1240,614L1240,616.9166666666666C1240,619.8333333333334,1240,625.6666666666666,1196.964050261735,634.6544762428385C1153.9281005234702,643.6422858190105,1067.8562010469404,655.7845716380209,1024.8202513086756,661.8557145475262L981.7843015704107,667.9268574570314" marker-end="url(#arrowhead)" fill="none"/></g><g class="sc-lbOyJj wYkTA edge"><path id="state-nuclei:end:normal" d="M1800,614L1800,616.9166666666666C1800,619.8333333333334,1800,625.6666666666666,1663.662619439922,634.9944363477656C1527.3252388798444,644.3222060288645,1254.6504777596886,657.1444120577289,1118.3130971996109,663.5555150721611L981.975716639533,669.9666180865934" marker-end="url(#arrowhead)" fill="none"/></g><g class="sc-lbOyJj wYkTA edge"><path id="state-nuclei-single-intensive:end:normal" d="M400,614L400,616.9166666666666C400,619.8333333333334,400,625.6666666666666,489.6757541306163,634.9086767050464C579.3515082612327,644.1506867434263,758.7030165224654,656.8013734868524,848.3787706530817,663.1267168585656L938.0545247836982,669.4520602302787" marker-end="url(#arrowhead)" fill="none"/></g><g class="sc-lbOyJj wYkTA edge"><path id="state-nuclei-intensive:end:normal" d="M1520,614L1520,616.9166666666666C1520,619.8333333333334,1520,625.6666666666666,1430.3242458693837,634.9086767050464C1340.6484917387672,644.1506867434263,1161.2969834775347,656.8013734868524,1071.6212293469182,663.1267168585656L981.9454752163018,669.4520602302787" marker-end="url(#arrowhead)" fill="none"/></g></g><defs><marker id="arrowhead" markerWidth="8" markerHeight="6" refX="7" refY="3" orient="auto" class="sc-ckMVTt jtmTlO"><polygon points="0 0, 8 3, 0 6"/></marker><marker id="highlighted-arrowhead" markerWidth="6" markerHeight="4" refX="5" refY="2" orient="auto" class="sc-ckMVTt jtmTlO"><polygon points="0 0, 6 2, 0 4"/></marker><marker id="error-arrowhead" markerWidth="6" markerHeight="4" refX="5" refY="2" orient="auto" class="sc-ckMVTt jtmTlO"><polygon points="0 0, 6 2, 0 4"/></marker><marker id="large-arrowhead" markerWidth="10" markerHeight="8" refX="9" refY="4" orient="auto" class="sc-ckMVTt jtmTlO"><polygon points="0 0, 10 4, 0 8"/></marker><marker id="large-highlighted-arrowhead" markerWidth="5.5" markerHeight="4" refX="4.5" refY="2" orient="auto" class="sc-ckMVTt jtmTlO"><polygon points="0 0, 5.5 2, 0 4"/></marker><marker id="large-error-arrowhead" markerWidth="10" markerHeight="8" refX="9" refY="4" orient="auto" class="sc-ckMVTt jtmTlO"><polygon points="0 0, 10 4, 0 8"/></marker><linearGradient x1="0%" y1="100%" x2="100%" y2="0%" id="gradient-orange"><stop stop-color="#C8511B" offset="0%"/><stop stop-color="#FF9900" offset="100%"/></linearGradient><linearGradient x1="0%" y1="100%" x2="100%" y2="0%" id="gradient-turquoise"><stop stop-color="#055F4E" offset="0%"/><stop stop-color="#56C0A7" offset="100%"/></linearGradient><linearGradient x1="0%" y1="100%" x2="100%" y2="0%" id="gradient-blue"><stop stop-color="#2E27AD" offset="0%"/><stop stop-color="#527FFF" offset="100%"/></linearGradient><linearGradient x1="0%" y1="100%" x2="100%" y2="0%" id="gradient-pink"><stop stop-color="#B0084D" offset="0%"/><stop stop-color="#FF4F8B" offset="100%"/></linearGradient><linearGradient x1="0%" y1="100%" x2="100%" y2="0%" id="gradient-red"><stop stop-color="#BD0816" offset="0%"/><stop stop-color="#FF5252" offset="100%"/></linearGradient><linearGradient x1="0%" y1="100%" x2="100%" y2="0%" id="gradient-green"><stop stop-color="#1B660F" offset="0%"/><stop stop-color="#6CAE3E" offset="100%"/></linearGradient><linearGradient x1="0%" y1="100%" x2="100%" y2="0%" id="gradient-purple"><stop stop-color="#4D27A8" offset="0%"/><stop stop-color="#A166FF" offset="100%"/></linearGradient><linearGradient x1="0%" y1="100%" x2="100%" y2="0%" id="gradient-grey"><stop stop-color="#DCDCDC" offset="0%"/><stop stop-color="#F6F5F7" offset="100%"/></linearGradient>,<linearGradient x1="0%" y1="100%" x2="100%" y2="0%" id="gradient-ag"><stop stop-color="#BC1356" offset="0%"/><stop stop-color="#F34482" offset="100%"/></linearGradient><linearGradient x1="0%" y1="100%" x2="100%" y2="0%" id="gradient-athena"><stop stop-color="#5930B5" offset="0%"/><stop stop-color="#945DF2" offset="100%"/></linearGradient><linearGradient x1="0%" y1="100%" x2="100%" y2="0%" id="gradient-emr"><stop stop-color="#5930B5" offset="0%"/><stop stop-color="#945DF2" offset="100%"/></linearGradient><linearGradient x1="0%" y1="100%" x2="100%" y2="0%" id="gradient-glue"><stop stop-color="#5930B5" offset="0%"/><stop stop-color="#945DF2" offset="100%"/></linearGradient><linearGradient x1="0%" y1="100%" x2="100%" y2="0%" id="gradient-sns"><stop stop-color="#BC1356" offset="0%"/><stop stop-color="#F34482" offset="100%"/></linearGradient><linearGradient x1="0%" y1="100%" x2="100%" y2="0%" id="gradient-states"><stop stop-color="#BC1356" offset="0%"/><stop stop-color="#F34482" offset="100%"/></linearGradient><linearGradient x1="0%" y1="100%" x2="100%" y2="0%" id="gradient-generic"><stop stop-color="#ccc" offset="0%"/><stop stop-color="#ddd" offset="100%"/></linearGradient><g stroke="none" stroke-width="1" fill="none" fill-rule="evenodd" id="icon-flow-choice"><g transform="translate(9.252020, 8.729185)" fill="#0073BB" fill-rule="nonzero"><path d="M13.7176503,0.219669914 C13.9839168,-0.0465966484 14.4005805,-0.0708026996 14.694192,0.147051761 L14.7783104,0.219669914 L26.7991257,12.2404852 C27.0653923,12.5067518 27.0895983,12.9234154 26.8717439,13.2170269 L26.7991257,13.3011454 L19.848,20.251 L27.063,27.58 L27.0635443,24.4725437 C27.0635443,24.0583302 27.3993308,23.7225437 27.8135443,23.7225437 C28.1901021,23.7225437 28.5018441,24.0000532 28.5554124,24.3617142 L28.5635443,24.4725437 L28.5635443,29.4222912 C28.5635443,29.4735748 28.5583971,29.5236562 28.5485912,29.5720469 L28.5290567,29.6477745 L28.4912259,29.7440224 L28.4674556,29.7898473 L28.4399848,29.8348433 L28.3922808,29.8993609 L28.3266417,29.9693147 L28.2903734,30.0012261 L28.2103598,30.0588356 L28.1372883,30.0990133 L28.0408973,30.1372113 L27.9243738,30.1641593 C27.8841362,30.1698129 27.8491297,30.1722912 27.8135443,30.1722912 L22.8637969,30.1722912 C22.4495833,30.1722912 22.1137969,29.8365048 22.1137969,29.4222912 C22.1137969,29.0457334 22.3913063,28.7339914 22.7529674,28.6804231 L22.8637969,28.6722912 L26.032,28.672 L18.787,21.312 L14.7783104,25.3219606 C14.5120439,25.5882272 14.0953802,25.6124333 13.8017687,25.3945788 L13.7176503,25.3219606 L9.63,21.234 L2.386,28.671 L5.69974747,28.6722912 L5.81057697,28.6804231 C6.17223802,28.7339914 6.44974747,29.0457334 6.44974747,29.4222912 C6.44974747,29.801987 6.16759359,30.1157822 5.80151803,30.1654446 L5.69974747,30.1722912 L0.75,30.1722912 L0.645175107,30.1650238 L0.571316134,30.150876 L0.491748953,30.1266437 L0.399838514,30.0857012 L0.323957521,30.0396165 L0.243169757,29.975129 L0.170912131,29.8989347 L0.109961584,29.8134582 L0.0656949991,29.7297074 L0.0297396696,29.6320944 L0.0076057584,29.5294944 L6.67910172e-13,29.4222912 L6.67910172e-13,24.4725437 L0.00813192572,24.3617142 C0.0617002376,24.0000532 0.373442216,23.7225437 0.75,23.7225437 C1.12969577,23.7225437 1.44349096,24.0046976 1.49315338,24.3707732 L1.5,24.4725437 L1.499,27.433 L8.569,20.174 L1.69683498,13.3011454 C1.43056842,13.0348788 1.40636237,12.6182151 1.62421683,12.3246036 L1.69683498,12.2404852 L13.7176503,0.219669914 Z M14.3527697,23.728356 L25.2081355,12.7708153 L14.2479803,1.81066017 L3.28782524,12.7708153 L9.616,19.099 L14.3527697,23.728356 Z"/><path d="M15.2319803,14.0468153 L15.2319803,13.2668153 C16.0033137,12.8508153 16.5579803,12.4218153 16.8959803,11.9798153 C17.2339803,11.5378153 17.4029803,11.0178153 17.4029803,10.4198153 C17.4029803,9.65714861 17.151647,9.06131528 16.6489803,8.63231528 C16.1463137,8.20331528 15.448647,7.98881528 14.5559803,7.98881528 C13.6979803,7.98881528 12.874647,8.19248195 12.0859803,8.59981528 L12.0859803,8.59981528 L12.0859803,10.3288153 C12.8313137,9.98214861 13.4943137,9.80881528 14.0749803,9.80881528 C14.395647,9.80881528 14.6404803,9.87814861 14.8094803,10.0168153 C14.9784803,10.1554819 15.0629803,10.3591486 15.0629803,10.6278153 C15.0629803,10.9138153 14.9763137,11.1651486 14.8029803,11.3818153 C14.629647,11.5984819 14.343647,11.8151486 13.9449803,12.0318153 L13.9449803,12.0318153 L13.1909803,12.4348153 L13.3339803,14.0468153 L15.2319803,14.0468153 Z M14.3089803,17.4398153 C14.7249803,17.4398153 15.0608137,17.3141486 15.3164803,17.0628153 C15.572147,16.8114819 15.6999803,16.4821486 15.6999803,16.0748153 C15.6999803,15.6674819 15.572147,15.3381486 15.3164803,15.0868153 C15.0608137,14.8354819 14.7249803,14.7098153 14.3089803,14.7098153 C13.8929803,14.7098153 13.557147,14.8354819 13.3014803,15.0868153 C13.0458137,15.3381486 12.9179803,15.6674819 12.9179803,16.0748153 C12.9179803,16.4821486 13.0458137,16.8114819 13.3014803,17.0628153 C13.557147,17.3141486 13.8929803,17.4398153 14.3089803,17.4398153 Z"/></g></g><g stroke="none" stroke-width="1" fill="none" fill-rule="evenodd" id="icon-service-lam"><polygon fill="url(#gradient-orange)" fill-rule="nonzero" points="0 0 48 0 48 48 0 48"/><g transform="translate(11, 10)" fill="#FFFFFF"><path d="M26.5889213,27.8937088 L19.6925948,27.8937088 C19.4772752,27.8931074 19.2813916,27.7706914 19.1888047,27.578869 L9.43766764,7.45673404 L5.31218659,7.45673404 C5.00303594,7.45673404 4.75241983,7.20943823 4.75241983,6.90438337 L4.75241983,0.828526005 C4.75241983,0.523471153 5.00303594,0.276175335 5.31218659,0.276175335 L13.9325948,0.276175335 C14.1479143,0.276776788 14.3437979,0.399192787 14.4363848,0.591015217 L24.1427405,20.7131501 L26.5889213,20.7131501 C26.8980719,20.7131501 27.148688,20.9604459 27.148688,21.2655008 L27.148688,27.3413582 C27.148688,27.646413 26.8980719,27.8937088 26.5889213,27.8937088 Z M20.0452478,26.7890075 L26.0291545,26.7890075 L26.0291545,21.8178515 L23.7900875,21.8178515 C23.5747679,21.81725 23.3788843,21.694834 23.2862974,21.5030116 L13.5799417,1.38087667 L5.87755102,1.38087667 L5.87755102,6.3520327 L9.79591837,6.3520327 C10.0112379,6.35263416 10.2071215,6.47505016 10.2997085,6.66687259 L20.0452478,26.7890075 Z"/><path d="M8.10542274,27.8937099 L0.82845481,27.8937099 C0.635054571,27.8940907 0.455155006,27.7959347 0.352653061,27.634104 C0.243858391,27.4681848 0.233185428,27.2575536 0.324664723,27.0817533 L7.93749271,11.3894708 C8.03007964,11.1976484 8.22596323,11.0752324 8.4412828,11.0746298 L8.4412828,11.0746298 C8.65533487,11.0742082 8.85089022,11.1942751 8.94507289,11.3839473 L12.5891545,18.7799228 C12.6634688,18.931712 12.6634688,19.1086786 12.5891545,19.2604679 L8.6148105,27.5457279 C8.53147526,27.7523199 8.33072312,27.8894609 8.10542274,27.8937099 L8.10542274,27.8937099 Z M1.72408163,26.7890075 L7.75276968,26.7890075 L11.4640233,19.0560981 L8.44688047,12.8973881 L1.72408163,26.7890075 Z"/></g></g></defs></g><style data-styled="true" data-styled-version="5.3.5">.fzRkr{cursor:pointer;}/*!sc*/
data-styled.g64[id="sc-ehmTmK"]{content:"fzRkr,"}/*!sc*/
.wYkTA{stroke:#555;background-color:#555;stroke-width:1px;}/*!sc*/
data-styled.g65[id="sc-lbOyJj"]{content:"wYkTA,"}/*!sc*/
.jtmTlO{fill:var(--color-text-form-secondary-1c3szk,#687078);}/*!sc*/
data-styled.g67[id="sc-ckMVTt"]{content:"jtmTlO,"}/*!sc*/
.ijurXc{font-weight:400;font-size:12px;line-height:16px;font-family:Amazon Ember,Arial,Roboto,Arial,sans-serif;text-shadow:none;fill:var(--color-text-body-default-7m2b3r,#16191f);}/*!sc*/
data-styled.g68[id="sc-fbPSWO"]{content:"ijurXc,"}/*!sc*/
.ktyhhn{fill:#fff9cc;stroke:var(--color-text-form-secondary-1c3szk,#687078);stroke-width:0.6px;}/*!sc*/
data-styled.g69[id="sc-GVOUr"]{content:"ktyhhn,"}/*!sc*/
.eiPrps{stroke-width:0;stroke:none;fill:#f2f3f3;}/*!sc*/
data-styled.g71[id="sc-dwLEzm"]{content:"eiPrps,"}/*!sc*/
.iuUhOo{font-size:10px;line-height:12.5;stroke:none;}/*!sc*/
data-styled.g72[id="sc-TRNrF"]{content:"iuUhOo,"}/*!sc*/
</style><style>
.new-look-state-node &gt; rect:first-of-type {
  stroke: #687078;
  stroke-width: 1px;
  fill: #FFFFFF;
}

.new-look-state-node .error-icon circle {
 stroke-linejoin: round;
}

.new-look-state-node .error-icon circle, .new-look-state-node .error-icon path {
 stroke: var(--color-border-status-error-fybu9w, #d13212);
 fill: none;
 stroke-width: 2px;
}

.new-look-state-node.has-errors &gt; rect:first-of-type {
 stroke: var(--color-border-status-error-fybu9w, #d13212);
 fill: var(--color-background-status-error-h1a0iq, #fdf3f1);
}

.new-look-state-node .handle path {
  stroke: var(--color-border-dropdown-item-hover-d32f3f, #879596);
  stroke-width: 1px;
  fill: none;
}

.new-look-state-node {
  font-weight: 400;
  font-family: Amazon Ember, Arial, Roboto, Arial, sans-serif;
  text-shadow: none;
}

.new-look-state-node .line1 {
  fill: #687078;
  font-size: 12px;
}

.selected.node &gt; .new-look-state-node &gt; rect,
.selected.node &gt; .new-look-state-node &gt; .new-look-state-node &gt; rect,
.selected.node &gt; .new-look-state-node &gt; .bounding-box &gt; .new-look-state-node-sub &gt; rect
 {
  stroke: var(--color-border-status-info-0iedcr, #0073bb);
  fill: var(--color-background-status-info-yq3r41, #f1faff);
  stroke-width: 1px;
}

.new-look-state-node-sub .item-source.not-specified {
  height: 15px;
  color: #687078;
  font-family: "Amazon Ember";
  font-size: 12px;
  letter-spacing: 0;
  line-height: 16px;
  font-weight: 400;
}
.new-look-state-node-sub .item-source .item-source_name{
  font-weight: 600;
}
.new-look-state-node-sub .item-source.not-specified .item-source_name{
  font-weight: 400;
}

.new-look-state-node-sub .item-source.not-specified {
  font-style: italic;
}



.new-look-state-node-sub .item-source
.selected.node &gt; .new-look-state-node.has-errors &gt; rect,
.selected.node &gt; .new-look-state-node.has-errors &gt; .new-look-state-node &gt; rect,
{
 stroke: var(--color-border-status-error-fybu9w, #d13212);
 fill: #fde0da;
}

.new-look-graph .drag-source {
  opacity: 0.2;
}

.new-look-graph .edge, .new-look-graph path.starting-connection {
  stroke-width: 1px;
  stroke: var(--color-text-form-secondary-1c3szk, #687078);
  marker-end: url(#large-arrowhead);
}

.new-look-graph .edge-label {
  cursor: pointer;
}

.new-look-graph .edge-label rect {
  stroke-width: 1px;
  stroke: var(--color-border-control-default-jt0hca, #aab7b8);
  fill: var(--color-background-container-header-g9rg0j, #fafafa);
}

.new-look-graph .edge-label.selected rect {
  stroke: var(--color-border-status-info-0iedcr, #0073bb);
  fill: var(--color-background-status-info-yq3r41, #f1faff);
  stroke-width: 0.6px;
}



.new-look-graph .edge-label .label {
  fill: var(--color-text-form-secondary-1c3szk, #687078);
  font-family: Amazon Ember, Arial, Roboto, Arial, sans-serif;
}

/* centering the shape text */
@-moz-document url-prefix() {
  .new-look-graph .shape + text,
  .new-look-graph .edge-label text {
    transform: translateY(3.5px);
  }
}

.new-look-graph .edge path {
  marker-end: url(#large-arrowhead) !important;
}

.new-look-graph .edge.selected path{
  stroke: var(--color-border-status-info-0iedcr, #0073bb);
  stroke-width: 1.1px;
}

.new-look-graph .edge.dragging-over path, .new-look-graph  g.dragging-over .starting-connection {
  stroke: #5C86FF;
  stroke-width: 2px;
}

.new-look-graph .edge.dragging-over path, .new-look-graph .dragging-over path.starting-connection {
  marker-end: url(#large-highlighted-arrowhead) !important;
}

.new-look-graph .edge.dragging-over .edge-label text {
  fill: #5C86FF;
}

#large-highlighted-arrowhead {
  fill: #5C86FF;
}

#large-highlighted-arrowhead path {
  stroke: none;
}

.new-look-graph .edge.drop-not-supported path, g.drop-not-supported .starting-connection {
  stroke: red;
}

.new-look-graph .edge.drop-not-supported .edge-label text {
  fill: red;
}

.new-look-graph .edge.drop-not-supported path {
  marker-end: url(#large-error-arrowhead) !important;
}

#large-error-arrowhead {
  fill: red;
}


.node.Placeholder.dragging-over rect {
  stroke: var(--color-border-status-info-0iedcr, #0073bb);
  fill: var(--color-background-status-info-yq3r41, #f1faff);
  stroke-width: 2px;
}

.node.Placeholder.dragging-over .label {
  fill: var(--color-text-status-info-09r23g, #0073bb);
}

g.Placeholder rect {
  stroke-dasharray: 5 4;
  stroke: var(--color-border-dropdown-item-hover-d32f3f, #879596);
  fill: var(--color-background-control-default-8xmy94, #ffffff);
  stroke-width: 1px;
}

g.Placeholder .label {
  font-style: italic;
  fill: var(--color-text-input-placeholder-rtvjp5, #687078);
}

.node.Placeholder.drop-not-supported rect {
  stroke: red;
}

.node.Placeholder.drop-not-supported .label {
  fill: red;
}
</style><style>.line2 { font-size: 14px }</style></svg>