<!DOCTYPE svg PUBLIC "-//W3C//DTD SVG 1.1//EN" "https://www.w3.org/Graphics/SVG/1.1/DTD/svg11.dtd">
<svg xmlns="http://www.w3.org/2000/svg" id="sfn-svg" class="sfn-workflow-graph" width="1031" height="577">
    
    
<g transform="translate(12,19.191667556762695)"><g class="nodes"><g class="node-container" transform="translate(548.50417137146,19)"><g class="node anchor"><circle class="shape" x="-16.191667556762695" y="-9" r="26.191667556762695"/><text class="label"><tspan xml:space="preserve" text-anchor="middle" alignment-baseline="central">Start</tspan></text></g></g><g class="node-container" transform="translate(567.7250061035156,523)"><g class="node anchor"><circle class="shape" x="-12.175000190734863" y="-9" r="22.175000190734863"/><text class="label"><tspan xml:space="preserve" text-anchor="middle" alignment-baseline="central">End</tspan></text></g></g><g class="node-container" transform="translate(548.50417137146,82)"><g class="node state Choice NotYetStarted"><rect class="shape" rx="5" ry="5" x="-91.11666870117188" y="-19" width="182.23333740234375" height="38"/><text class="label"><tspan xml:space="preserve" text-anchor="middle" alignment-baseline="central">Scan a single subdomain?</tspan></text></g></g><g class="node-container" transform="translate(247.6750030517578,271)"><g class="node state Task NotYetStarted"><rect class="shape" rx="5" ry="5" x="-66.63333511352539" y="-19" width="133.26667022705078" height="38"/><text class="label"><tspan xml:space="preserve" text-anchor="middle" alignment-baseline="central">single-subdomain</tspan></text></g></g><g class="node-container" transform="translate(708.5291728973389,145)"><g class="node state Task NotYetStarted"><rect class="shape" rx="5" ry="5" x="-40.49166679382324" y="-19" width="80.98333358764648" height="38"/><text class="label"><tspan xml:space="preserve" text-anchor="middle" alignment-baseline="central">subfinder</tspan></text></g></g><g class="node-container" transform="translate(247.6750030517578,334)"><g class="node state Choice NotYetStarted"><rect class="shape" rx="5" ry="5" x="-109.92500305175781" y="-19" width="219.85000610351562" height="38"/><text class="label"><tspan xml:space="preserve" text-anchor="middle" alignment-baseline="central">scantype for single subdomain?</tspan></text></g></g><g class="node-container" transform="translate(63.141666412353516,397)"><g class="node state Task NotYetStarted"><rect class="shape" rx="5" ry="5" x="-63.141666412353516" y="-19" width="126.28333282470703" height="38"/><text class="label"><tspan xml:space="preserve" text-anchor="middle" alignment-baseline="central">nuclei-single-lite</tspan></text></g></g><g class="node-container" transform="translate(247.6750030517578,397)"><g class="node state Task NotYetStarted"><rect class="shape" rx="5" ry="5" x="-81.39167022705078" y="-19" width="162.78334045410156" height="38"/><text class="label"><tspan xml:space="preserve" text-anchor="middle" alignment-baseline="central">nuclei-single-intensive</tspan></text></g></g><g class="node-container" transform="translate(419.3166732788086,397)"><g class="node state Task NotYetStarted"><rect class="shape" rx="5" ry="5" x="-50.25" y="-19" width="100.5" height="38"/><text class="label"><tspan xml:space="preserve" text-anchor="middle" alignment-baseline="central">nuclei-single</tspan></text></g></g><g class="node-container" transform="translate(567.7250061035156,460)"><g class="node state Task NotYetStarted"><rect class="shape" rx="5" ry="5" x="-65.80833435058594" y="-19" width="131.61666870117188" height="38"/><text class="label"><tspan xml:space="preserve" text-anchor="middle" alignment-baseline="central">webpage of vulns</tspan></text></g></g><g class="node-container" transform="translate(708.5291728973389,208)"><g class="node state Choice NotYetStarted"><rect class="shape" rx="5" ry="5" x="-55.15833282470703" y="-19" width="110.31666564941406" height="38"/><text class="label"><tspan xml:space="preserve" text-anchor="middle" alignment-baseline="central">network scan?</tspan></text></g></g><g class="node-container" transform="translate(567.7250061035156,397)"><g class="node state Task NotYetStarted"><rect class="shape" rx="5" ry="5" x="-58.15833282470703" y="-19" width="116.31666564941406" height="38"/><text class="label"><tspan xml:space="preserve" text-anchor="middle" alignment-baseline="central">nuclei-network</tspan></text></g></g><g class="node-container" transform="translate(849.3333396911621,271)"><g class="node state Task NotYetStarted"><rect class="shape" rx="5" ry="5" x="-27.125" y="-19" width="54.25" height="38"/><text class="label"><tspan xml:space="preserve" text-anchor="middle" alignment-baseline="central">httpx</tspan></text></g></g><g class="node-container" transform="translate(849.3333396911621,334)"><g class="node state Choice NotYetStarted"><rect class="shape" rx="5" ry="5" x="-120.84166717529297" y="-19" width="241.68333435058594" height="38"/><text class="label"><tspan xml:space="preserve" text-anchor="middle" alignment-baseline="central">scantype for multiple subdomains?</tspan></text></g></g><g class="node-container" transform="translate(707.6166725158691,397)"><g class="node state Task NotYetStarted"><rect class="shape" rx="5" ry="5" x="-41.733333587646484" y="-19" width="83.46666717529297" height="38"/><text class="label"><tspan xml:space="preserve" text-anchor="middle" alignment-baseline="central">nuclei-lite</tspan></text></g></g><g class="node-container" transform="translate(849.3333396911621,397)"><g class="node state Task NotYetStarted"><rect class="shape" rx="5" ry="5" x="-59.983333587646484" y="-19" width="119.96666717529297" height="38"/><text class="label"><tspan xml:space="preserve" text-anchor="middle" alignment-baseline="central">nuclei-intensive</tspan></text></g></g><g class="node-container" transform="translate(978.1583404541016,397)"><g class="node state Task NotYetStarted"><rect class="shape" rx="5" ry="5" x="-28.84166717529297" y="-19" width="57.68333435058594" height="38"/><text class="label"><tspan xml:space="preserve" text-anchor="middle" alignment-baseline="central">nuclei</tspan></text></g></g></g><g class="edges"><g class="edge"><path class="path" style="fill: none;" marker-end="url(#arrowhead45)" d="M457.3875026702881,91.54088022819873L422.43541940053296,95.20073352349894C387.48333613077796,98.86058681879915,317.5791695912679,106.18029340939957,282.6270863215128,115.09014670469978C247.6750030517578,123.99999999999999,247.6750030517578,134.5,247.6750030517578,144.99999999999997C247.6750030517578,155.5,247.6750030517578,166,247.6750030517578,176.49999999999997C247.6750030517578,187,247.6750030517578,197.5,247.6750030517578,207.99999999999997C247.6750030517578,218.5,247.6750030517578,229,247.6750030517578,236.33333333333331C247.6750030517578,243.66666666666666,247.6750030517578,247.83333333333331,247.6750030517578,249.91666666666666L247.6750030517578,252"/><defs><marker id="arrowhead45" viewBox="0 0 10 10" refX="9" refY="5" markerUnits="strokeWidth" markerWidth="8" markerHeight="6" orient="auto"><path d="M 0 0 L 10 5 L 0 10 z"/></marker></defs></g><g class="edge"><path class="path" style="fill: none;" marker-end="url(#arrowhead46)" d="M639.6208400726318,99.93579151207041L651.1055622100829,102.19649292672531C662.5902843475342,104.45719434138026,685.5597286224365,108.97859717069012,697.0444507598876,113.32263191867838C708.5291728973389,117.66666666666666,708.5291728973389,121.83333333333333,708.5291728973388,123.91666666666666L708.5291728973389,126"/><defs><marker id="arrowhead46" viewBox="0 0 10 10" refX="9" refY="5" markerUnits="strokeWidth" markerWidth="8" markerHeight="6" orient="auto"><path d="M 0 0 L 10 5 L 0 10 z"/></marker></defs></g><g class="edge"><path class="path" style="fill: none;" marker-end="url(#arrowhead47)" d="M548.50417137146,45.191667556762695L548.5041713714598,46.076389630635575C548.50417137146,46.96111170450846,548.50417137146,48.73055585225423,548.5041713714598,51.69861125946045C548.50417137146,54.666666666666664,548.50417137146,58.83333333333333,548.5041713714598,60.916666666666664L548.50417137146,63"/><defs><marker id="arrowhead47" viewBox="0 0 10 10" refX="9" refY="5" markerUnits="strokeWidth" markerWidth="8" markerHeight="6" orient="auto"><path d="M 0 0 L 10 5 L 0 10 z"/></marker></defs></g><g class="edge"><path class="path" style="fill: none;" marker-end="url(#arrowhead48)" d="M247.6750030517578,290L247.6750030517578,292.0833333333333C247.6750030517578,294.16666666666663,247.6750030517578,298.3333333333333,247.6750030517578,302.5C247.6750030517578,306.66666666666663,247.6750030517578,310.8333333333333,247.6750030517578,312.9166666666667L247.6750030517578,315"/><defs><marker id="arrowhead48" viewBox="0 0 10 10" refX="9" refY="5" markerUnits="strokeWidth" markerWidth="8" markerHeight="6" orient="auto"><path d="M 0 0 L 10 5 L 0 10 z"/></marker></defs></g><g class="edge"><path class="path" style="fill: none;" marker-end="url(#arrowhead49)" d="M137.75,352.76429299545316L125.31527773539224,354.8869108295443C112.8805554707845,357.0095286636354,88.011110941569,361.2547643318177,75.57638867696126,365.46071549924216C63.141666412353516,369.66666666666663,63.141666412353516,373.8333333333333,63.141666412353516,375.9166666666667L63.141666412353516,378"/><defs><marker id="arrowhead49" viewBox="0 0 10 10" refX="9" refY="5" markerUnits="strokeWidth" markerWidth="8" markerHeight="6" orient="auto"><path d="M 0 0 L 10 5 L 0 10 z"/></marker></defs></g><g class="edge"><path class="path" style="fill: none;" marker-end="url(#arrowhead50)" d="M247.6750030517578,353L247.6750030517578,355.0833333333333C247.6750030517578,357.16666666666663,247.6750030517578,361.3333333333333,247.6750030517578,365.5C247.6750030517578,369.66666666666663,247.6750030517578,373.8333333333333,247.6750030517578,375.9166666666667L247.6750030517578,378"/><defs><marker id="arrowhead50" viewBox="0 0 10 10" refX="9" refY="5" markerUnits="strokeWidth" markerWidth="8" markerHeight="6" orient="auto"><path d="M 0 0 L 10 5 L 0 10 z"/></marker></defs></g><g class="edge"><path class="path" style="fill: none;" marker-end="url(#arrowhead51)" d="M351.20489937918524,353L362.5568616957891,355.0833333333333C373.908824012393,357.16666666666663,396.6127486456008,361.3333333333333,407.9647109622047,365.5C419.3166732788086,369.66666666666663,419.3166732788086,373.8333333333333,419.3166732788086,375.9166666666667L419.3166732788086,378"/><defs><marker id="arrowhead51" viewBox="0 0 10 10" refX="9" refY="5" markerUnits="strokeWidth" markerWidth="8" markerHeight="6" orient="auto"><path d="M 0 0 L 10 5 L 0 10 z"/></marker></defs></g><g class="edge"><path class="path" style="fill: none;" marker-end="url(#arrowhead52)" d="M63.141666412353516,416L63.141666412353516,418.08333333333326C63.141666412353516,420.16666666666663,63.141666412353516,424.33333333333326,136.2708339691162,430.98195568205097C209.4000015258789,437.6305780307687,355.6583366394043,446.76115606153746,428.787504196167,451.32644507692186L501.9166717529297,455.89173409230625"/><defs><marker id="arrowhead52" viewBox="0 0 10 10" refX="9" refY="5" markerUnits="strokeWidth" markerWidth="8" markerHeight="6" orient="auto"><path d="M 0 0 L 10 5 L 0 10 z"/></marker></defs></g><g class="edge"><path class="path" style="fill: none;" marker-end="url(#arrowhead53)" d="M419.3166732788086,416L419.3166732788086,418.08333333333326C419.3166732788086,420.16666666666663,419.3166732788086,424.33333333333326,433.0833396911621,429.3386723501436C446.8500061035156,434.3440113669539,474.38333892822266,440.18802273390787,488.1500053405762,443.1100284173848L501.9166717529297,446.03203410086184"/><defs><marker id="arrowhead53" viewBox="0 0 10 10" refX="9" refY="5" markerUnits="strokeWidth" markerWidth="8" markerHeight="6" orient="auto"><path d="M 0 0 L 10 5 L 0 10 z"/></marker></defs></g><g class="edge"><path class="path" style="fill: none;" marker-end="url(#arrowhead54)" d="M708.5291728973389,164L708.5291728973388,166.08333333333331C708.5291728973389,168.16666666666666,708.5291728973389,172.33333333333331,708.5291728973388,176.5C708.5291728973389,180.66666666666666,708.5291728973389,184.83333333333331,708.5291728973388,186.91666666666666L708.5291728973389,189"/><defs><marker id="arrowhead54" viewBox="0 0 10 10" refX="9" refY="5" markerUnits="strokeWidth" markerWidth="8" markerHeight="6" orient="auto"><path d="M 0 0 L 10 5 L 0 10 z"/></marker></defs></g><g class="edge"><path class="path" style="fill: none;" marker-end="url(#arrowhead55)" d="M653.3708400726318,220.33974479265547L639.0965344111124,223.5331206605462C624.822228749593,226.72649652843694,596.2736174265543,233.11324826421847,581.9993117650349,241.55662413210922C567.7250061035156,250,567.7250061035156,260.5,567.7250061035156,271C567.7250061035156,281.5,567.7250061035156,292,567.7250061035156,302.5C567.7250061035156,313,567.7250061035156,323.5,567.7250061035156,334C567.7250061035156,344.5,567.7250061035156,355,567.7250061035156,362.3333333333333C567.7250061035156,369.66666666666663,567.7250061035156,373.8333333333333,567.7250061035156,375.9166666666667L567.7250061035156,378"/><defs><marker id="arrowhead55" viewBox="0 0 10 10" refX="9" refY="5" markerUnits="strokeWidth" markerWidth="8" markerHeight="6" orient="auto"><path d="M 0 0 L 10 5 L 0 10 z"/></marker></defs></g><g class="edge"><path class="path" style="fill: none;" marker-end="url(#arrowhead56)" d="M763.6875057220459,220.33974479265547L777.9618113835652,223.5331206605462C792.2361170450846,226.72649652843694,820.7847283681233,233.11324826421847,835.0590340296426,238.38995746544256C849.333339691162,243.66666666666666,849.333339691162,247.83333333333331,849.3333396911619,249.91666666666666L849.3333396911621,252"/><defs><marker id="arrowhead56" viewBox="0 0 10 10" refX="9" refY="5" markerUnits="strokeWidth" markerWidth="8" markerHeight="6" orient="auto"><path d="M 0 0 L 10 5 L 0 10 z"/></marker></defs></g><g class="edge"><path class="path" style="fill: none;" marker-end="url(#arrowhead57)" d="M567.7250061035156,416L567.7250061035156,418.08333333333326C567.7250061035156,420.16666666666663,567.7250061035156,424.33333333333326,567.7250061035156,428.49999999999994C567.7250061035156,432.66666666666663,567.7250061035156,436.8333333333333,567.7250061035156,438.91666666666663L567.7250061035156,441"/><defs><marker id="arrowhead57" viewBox="0 0 10 10" refX="9" refY="5" markerUnits="strokeWidth" markerWidth="8" markerHeight="6" orient="auto"><path d="M 0 0 L 10 5 L 0 10 z"/></marker></defs></g><g class="edge"><path class="path" style="fill: none;" marker-end="url(#arrowhead58)" d="M567.7250061035156,479L567.7250061035156,481.08333333333326C567.7250061035156,483.16666666666663,567.7250061035156,487.33333333333326,567.7250061035156,490.97083330154413C567.7250061035156,494.608333269755,567.7250061035156,497.7166665395101,567.7250061035156,499.2708331743876L567.7250061035156,500.82499980926514"/><defs><marker id="arrowhead58" viewBox="0 0 10 10" refX="9" refY="5" markerUnits="strokeWidth" markerWidth="8" markerHeight="6" orient="auto"><path d="M 0 0 L 10 5 L 0 10 z"/></marker></defs></g><g class="edge"><path class="path" style="fill: none;" marker-end="url(#arrowhead59)" d="M849.3333396911621,290L849.3333396911619,292.0833333333333C849.333339691162,294.16666666666663,849.333339691162,298.3333333333333,849.3333396911619,302.5C849.333339691162,306.66666666666663,849.333339691162,310.8333333333333,849.3333396911619,312.9166666666667L849.3333396911621,315"/><defs><marker id="arrowhead59" viewBox="0 0 10 10" refX="9" refY="5" markerUnits="strokeWidth" markerWidth="8" markerHeight="6" orient="auto"><path d="M 0 0 L 10 5 L 0 10 z"/></marker></defs></g><g class="edge"><path class="path" style="fill: none;" marker-end="url(#arrowhead60)" d="M763.8534452044775,353L754.480649756376,355.0833333333333C745.1078543082747,357.16666666666663,726.3622634120718,361.3333333333333,716.9894679639705,365.5C707.6166725158691,369.66666666666663,707.6166725158691,373.8333333333333,707.616672515869,375.9166666666667L707.6166725158691,378"/><defs><marker id="arrowhead60" viewBox="0 0 10 10" refX="9" refY="5" markerUnits="strokeWidth" markerWidth="8" markerHeight="6" orient="auto"><path d="M 0 0 L 10 5 L 0 10 z"/></marker></defs></g><g class="edge"><path class="path" style="fill: none;" marker-end="url(#arrowhead61)" d="M849.3333396911621,353L849.3333396911619,355.0833333333333C849.333339691162,357.16666666666663,849.333339691162,361.3333333333333,849.3333396911619,365.5C849.333339691162,369.66666666666663,849.333339691162,373.8333333333333,849.3333396911619,375.9166666666667L849.3333396911621,378"/><defs><marker id="arrowhead61" viewBox="0 0 10 10" refX="9" refY="5" markerUnits="strokeWidth" markerWidth="8" markerHeight="6" orient="auto"><path d="M 0 0 L 10 5 L 0 10 z"/></marker></defs></g><g class="edge"><path class="path" style="fill: none;" marker-end="url(#arrowhead62)" d="M927.037308405316,353L935.5574804134469,355.0833333333333C944.0776524215778,357.16666666666663,961.1179964378397,361.3333333333333,969.6381684459707,365.5C978.1583404541016,369.66666666666663,978.1583404541016,373.8333333333333,978.1583404541016,375.9166666666667L978.1583404541016,378"/><defs><marker id="arrowhead62" viewBox="0 0 10 10" refX="9" refY="5" markerUnits="strokeWidth" markerWidth="8" markerHeight="6" orient="auto"><path d="M 0 0 L 10 5 L 0 10 z"/></marker></defs></g><g class="edge"><path class="path" style="fill: none;" marker-end="url(#arrowhead63)" d="M707.6166725158691,416L707.616672515869,418.08333333333326C707.6166725158691,420.16666666666663,707.6166725158691,424.33333333333326,695.2694505055745,429.1969430283608C682.9222284952799,434.06055272338835,658.2277844746907,439.6211054467768,645.8805624643961,442.40138180847106L633.5333404541016,445.1816581701653"/><defs><marker id="arrowhead63" viewBox="0 0 10 10" refX="9" refY="5" markerUnits="strokeWidth" markerWidth="8" markerHeight="6" orient="auto"><path d="M 0 0 L 10 5 L 0 10 z"/></marker></defs></g><g class="edge"><path class="path" style="fill: none;" marker-end="url(#arrowhead64)" d="M978.1583404541016,416L978.1583404541016,418.08333333333326C978.1583404541016,420.16666666666663,978.1583404541016,424.33333333333326,920.7208404541016,430.8248886568779C863.2833404541016,437.31644398042255,748.4083404541016,446.13288796084515,690.9708404541016,450.54110995105646L633.5333404541016,454.9493319412678"/><defs><marker id="arrowhead64" viewBox="0 0 10 10" refX="9" refY="5" markerUnits="strokeWidth" markerWidth="8" markerHeight="6" orient="auto"><path d="M 0 0 L 10 5 L 0 10 z"/></marker></defs></g><g class="edge"><path class="path" style="fill: none;" marker-end="url(#arrowhead65)" d="M247.6750030517578,416L247.6750030517578,418.08333333333326C247.6750030517578,420.16666666666663,247.6750030517578,424.33333333333326,290.0486145019531,430.58716736328836C332.42222595214844,436.84100139324346,417.16944885253906,445.182002786487,459.5430603027344,449.3525034831087L501.9166717529297,453.52300417973055"/><defs><marker id="arrowhead65" viewBox="0 0 10 10" refX="9" refY="5" markerUnits="strokeWidth" markerWidth="8" markerHeight="6" orient="auto"><path d="M 0 0 L 10 5 L 0 10 z"/></marker></defs></g><g class="edge"><path class="path" style="fill: none;" marker-end="url(#arrowhead66)" d="M849.3333396911621,416L849.3333396911619,418.08333333333326C849.333339691162,420.16666666666663,849.333339691162,424.33333333333326,813.3666731516519,430.439807535976C777.4000066121419,436.5462817386187,705.4666735331217,444.59256347723743,669.5000069936116,448.61570434654675L633.5333404541016,452.63884521585624"/><defs><marker id="arrowhead66" viewBox="0 0 10 10" refX="9" refY="5" markerUnits="strokeWidth" markerWidth="8" markerHeight="6" orient="auto"><path d="M 0 0 L 10 5 L 0 10 z"/></marker></defs></g></g></g><style xmlns="http://www.w3.org/1999/xhtml">.node &gt; .shape {stroke: #555555;stroke-width: 0.6px;fill: #FFFFFF;} path {stroke: #555;background-color: #555;stroke-width: 1px;} .node.state.NotYetStarted &gt; .shape,.node.state.Container &gt; .shape {stroke-dasharray: 5 2;} .node.state.Failed &gt; .shape,rect.legend.Failed {fill: #DE322F;} .node.state.CaughtError &gt; .shape,rect.legend.CaughtError {fill: #FFA500;} .node.state.Succeeded &gt; .shape,rect.legend.Succeeded {fill: #2BD62E;} .node.state.InProgress &gt; .shape,rect.legend.InProgress {fill: #53c9ed;} .node.state.Cancelled &gt; .shape,rect.legend.Cancelled {fill: #dddddd;} .node.anchor &gt; .shape {fill: #FFDA75;} .node.state.hovered:not(.selected):not(.NotYetStarted) &gt; .shape,.node.selected &gt; .shape {stroke: #555555;stroke-width: 2px;} .node.state.Container.Failed &gt; .shape {fill: #EE9592;} .node.state.Container.CaughtError &gt; .shape {fill: #FFD27F;} .node.state.Container.Succeeded &gt; .shape {fill: #91EA9A;} .node.state.Container.InProgress &gt; .shape {fill :#A9E4F7;} .node.state.Container.Cancelled &gt; .shape {fill: #EEEEEE;} marker {fill: #555555;} .node.anchor,.node.state.NotYetStarted {cursor: default;} .node.state {cursor: pointer;} tspan .label {font-weight: normal;font-size: 12px;text-shadow: none;} </style></svg>